#!OML:ASF H:\Dans Jumps\Project 1\Capture day 1\Session 1\subject.ASF
:FULLY-SPECIFIED
:DEGREES
186
root 0.177076 16.6348 -15.279 20.6041 -0.253357 -2.3771
lowerback 11.8748 -0.0822709 -0.301751
upperback 4.4945 -0.0750584 2.36599
thorax -1.95461 -0.0566543 2.63987
lowerneck -16.7725 0.757379 -1.34172
upperneck 14.6088 1.49399 -0.754945
head 7.23582 0.56594 0.135931
rclavicle 6.75868e-015 1.39149e-015
rhumerus -25.2151 -24.2455 -73.7246
rradius 25.0412
rwrist 32.6176
rhand -18.4316 -25.2097
rfingers 7.12502
rthumb 7.85379 -55.0438
lclavicle 6.75868e-015 1.39149e-015
lhumerus -22.114 5.40187 83.1418
lradius 19.2652
lwrist 4.04443
lhand -26.1691 -4.5738
lfingers 7.12502
lthumb 0.382396 25.4056
rfemur -48.3862 -2.81558 23.2508
rtibia 47.347
rfoot -21.3004 -4.30627
rtoes 3.96512
lfemur -49.1759 8.82606 -21.7838
ltibia 47.1282
lfoot -18.5822 9.00707
ltoes -7.10301
187
root 0.174494 16.6103 -15.2832 20.8148 -0.261111 -2.40559
lowerback 12.1027 -0.0673167 -0.33883
upperback 4.51909 -0.05745 2.37745
thorax -2.05349 -0.0477619 2.67224
lowerneck -16.8116 0.753278 -1.33907
upperneck 14.3841 1.48627 -0.760263
head 7.16913 0.564067 0.132373
rclavicle 6.55989e-015 -1.76918e-014
rhumerus -25.4024 -24.4285 -73.5866
rradius 24.8299
rwrist 32.9561
rhand -18.4397 -25.2283
rfingers 7.12502
rthumb 7.84593 -55.0627
lclavicle 6.55989e-015 -1.76918e-014
lhumerus -22.2649 5.76159 82.9956
lradius 18.8815
lwrist 3.45249
lhand -25.9851 -4.49717
lfingers 7.12502
lthumb 0.560184 25.4818
rfemur -48.883 -2.8037 23.3179
rtibia 47.8138
rfoot -21.6597 -4.44865
rtoes 3.59192
lfemur -49.6783 8.82224 -21.7795
ltibia 47.6445
lfoot -18.9594 9.48356
ltoes -7.19291
188
root 0.171783 16.5865 -15.2851 21.0188 -0.26992 -2.42214
lowerback 12.3208 -0.0511813 -0.383703
upperback 4.54155 -0.0395826 2.38326
thorax -2.14913 -0.0387274 2.70297
lowerneck -16.8637 0.749989 -1.32715
upperneck 14.1809 1.47901 -0.771664
head 7.11183 0.562083 0.12551
rclavicle -8.94531e-016 -5.96354e-016
rhumerus -25.5911 -24.5988 -73.4576
rradius 24.6521
rwrist 33.2101
rhand -18.3632 -25.2755
rfingers 7.12502
rthumb 7.91983 -55.1071
lclavicle -8.94531e-016 -5.96354e-016
lhumerus -22.4171 6.1372 82.8386
lradius 18.5083
lwrist 2.84922
lhand -25.812 -4.43282
lfingers 7.12502
lthumb 0.72735 25.5457
rfemur -49.3586 -2.78943 23.3702
rtibia 48.2754
rfoot -22.0277 -4.63477
rtoes 3.21969
lfemur -50.1539 8.81532 -21.7859
ltibia 48.1508
lfoot -19.3715 10.0211
ltoes -7.21405
189
root 0.169062 16.5635 -15.2846 21.2185 -0.277926 -2.42585
lowerback 12.5264 -0.0357426 -0.435097
upperback 4.56095 -0.0238345 2.38342
thorax -2.241 -0.0307102 2.73164
lowerneck -16.9213 0.746355 -1.31542
upperneck 13.9921 1.47131 -0.781287
head 7.06019 0.559863 0.119292
rclavicle 8.54774e-015 7.35503e-015
rhumerus -25.7843 -24.7635 -73.3344
rradius 24.507
rwrist 33.3792
rhand -18.2032 -25.3335
rfingers 7.12502
rthumb 8.0742 -55.1593
lclavicle 8.54774e-015 7.35503e-015
lhumerus -22.5697 6.53065 82.6706
lradius 18.1465
lwrist 2.25043
lhand -25.6592 -4.35562
lfingers 7.12502
lthumb 0.87487 25.6223
rfemur -49.8146 -2.77504 23.407
rtibia 48.7303
rfoot -22.3969 -4.8638
rtoes 2.87532
lfemur -50.6063 8.80456 -21.8066
ltibia 48.6432
lfoot -19.8164 10.5711
ltoes -7.22603
190
root 0.16633 16.5413 -15.2821 21.4144 -0.279674 -2.42091
lowerback 12.7233 -0.0229677 -0.488281
upperback 4.57628 -0.0121094 2.38075
thorax -2.33216 -0.0246035 2.75886
lowerneck -16.9838 0.745367 -1.29687
upperneck 13.816 1.46677 -0.796632
head 7.0137 0.558836 0.110518
rclavicle 7.95139e-016 -5.96354e-015
rhumerus -25.9841 -24.9322 -73.2116
rradius 24.3759
rwrist 33.5279
rhand -18.0395 -25.361
rfingers 7.12502
rthumb 8.23223 -55.1806
lclavicle 7.95139e-016 -5.96354e-015
lhumerus -22.7237 6.9385 82.4937
lradius 17.8019
lwrist 1.68067
lhand -25.5274 -4.28989
lfingers 7.12502
lthumb 1.00218 25.6875
rfemur -50.2504 -2.76308 23.4343
rtibia 49.1756
rfoot -22.7663 -5.13159
rtoes 2.57501
lfemur -51.0389 8.78701 -21.8369
ltibia 49.119
lfoot -20.2967 11.0833
ltoes -7.28105
191
root 0.163612 16.5199 -15.2775 21.6065 -0.274058 -2.41089
lowerback 12.9139 -0.0126185 -0.539546
upperback 4.58586 -0.00351752 2.37766
thorax -2.42568 -0.0199178 2.78497
lowerneck -17.0534 0.74463 -1.28174
upperneck 13.6569 1.46325 -0.809159
head 6.9739 0.558167 0.103422
rclavicle 3.97569e-016 -5.1684e-015
rhumerus -26.2034 -25.1344 -73.0646
rradius 24.211
rwrist 33.828
rhand -18.0409 -25.2736
rfingers 7.12502
rthumb 8.23088 -55.0933
lclavicle 3.97569e-016 -5.1684e-015
lhumerus -22.8818 7.35981 82.3127
lradius 17.4734
lwrist 1.15434
lhand -25.428 -4.25049
lfingers 7.12502
lthumb 1.09816 25.7264
rfemur -50.6666 -2.752 23.4555
rtibia 49.6112
rfoot -23.1425 -5.43043
rtoes 2.30368
lfemur -51.4535 8.75824 -21.871
ltibia 49.5774
lfoot -20.8085 11.5398
ltoes -7.42687
192
root 0.160968 16.4994 -15.2709 21.8018 -0.259043 -2.39994
lowerback 13.0987 -0.0061658 -0.586206
upperback 4.58524 0.000521637 2.37623
thorax -2.5264 -0.017269 2.81087
lowerneck -17.1066 0.744759 -1.27617
upperneck 13.4955 1.46139 -0.81294
head 6.93046 0.558663 0.100826
rclavicle -4.57205e-015 1.98785e-014
rhumerus -26.436 -25.3221 -72.9133
rradius 24.0377
rwrist 34.1833
rhand -18.1508 -25.1472
rfingers 7.12502
rthumb 8.12476 -54.971
lclavicle -4.57205e-015 1.98785e-014
lhumerus -23.0433 7.79853 82.1247
lradius 17.1597
lwrist 0.669761
lhand -25.3387 -4.19328
lfingers 7.12502
lthumb 1.18447 25.7832
rfemur -51.0704 -2.74281 23.4758
rtibia 50.0355
rfoot -23.5268 -5.744
rtoes 2.04809
lfemur -51.858 8.71046 -21.9007
ltibia 50.0186
lfoot -21.3389 11.9345
ltoes -7.6423
193
root 0.158355 16.4794 -15.2626 21.9927 -0.23384 -2.38832
lowerback 13.2851 -0.00241199 -0.626015
upperback 4.57857 0.00188069 2.37651
thorax -2.6342 -0.0157536 2.83517
lowerneck -17.1719 0.747284 -1.26698
upperneck 13.3501 1.4631 -0.821254
head 6.89432 0.560437 0.0966598
rclavicle -7.95139e-015 -2.82274e-014
rhumerus -26.6696 -25.4789 -72.7678
rradius 23.8801
rwrist 34.5006
rhand -18.2622 -25.0483
rfingers 7.12502
rthumb 8.01728 -54.8763
lclavicle -7.95139e-015 -2.82274e-014
lhumerus -23.2072 8.24501 81.9348
lradius 16.8653
lwrist 0.233443
lhand -25.2641 -4.13924
lfingers 7.12502
lthumb 1.25645 25.8368
rfemur -51.4558 -2.73613 23.4952
rtibia 50.4498
rfoot -23.9288 -6.05697
rtoes 1.79515
lfemur -52.2436 8.63952 -21.9206
ltibia 50.4446
lfoot -21.8721 12.3032
ltoes -7.89279
194
root 0.155858 16.46 -15.2526 22.1797 -0.194267 -2.37737
lowerback 13.4737 -0.00293772 -0.654607
upperback 4.56512 -0.000867451 2.37894
thorax -2.74995 -0.0160472 2.8561
lowerneck -17.231 0.748552 -1.26517
upperneck 13.2038 1.46382 -0.823896
head 6.85674 0.561898 0.0953952
rclavicle -4.87022e-015 1.87852e-014
rhumerus -26.896 -25.5821 -72.645
rradius 23.7641
rwrist 34.6945
rhand -18.2781 -25.0549
rfingers 7.12502
rthumb 8.00191 -54.8834
lclavicle -4.87022e-015 1.87852e-014
lhumerus -23.3733 8.69869 81.7413
lradius 16.5859
lwrist -0.175157
lhand -25.2028 -4.09822
lfingers 7.12502
lthumb 1.31572 25.8775
rfemur -51.8231 -2.73511 23.5162
rtibia 50.8544
rfoot -24.346 -6.3648
rtoes 1.5112
lfemur -52.6102 8.53915 -21.925
ltibia 50.8561
lfoot -22.3884 12.6723
ltoes -8.1396
195
root 0.153454 16.441 -15.2409 22.3618 -0.14287 -2.36612
lowerback 13.6657 -0.0059146 -0.67344
upperback 4.54716 -0.00550019 2.38271
thorax -2.87217 -0.0170974 2.87332
lowerneck -17.2891 0.749143 -1.2658
upperneck 13.0581 1.464 -0.825294
head 6.81923 0.563089 0.0948684
rclavicle 9.93923e-017 -5.06901e-015
rhumerus -27.1264 -25.6548 -72.526
rradius 23.6717
rwrist 34.8521
rhand -18.2857 -25.0574
rfingers 7.12502
rthumb 7.99464 -54.8862
lclavicle 9.93923e-017 -5.06901e-015
lhumerus -23.538 9.15773 81.5445
lradius 16.3219
lwrist -0.571125
lhand -25.1619 -4.0943
lfingers 7.12502
lthumb 1.35519 25.8811
rfemur -52.173 -2.73778 23.537
rtibia 51.2509
rfoot -24.7774 -6.66502
rtoes 1.19838
lfemur -52.9574 8.41102 -21.9142
ltibia 51.2554
lfoot -22.8736 13.0636
ltoes -8.35602
196
root 0.151095 16.4226 -15.2273 22.5408 -0.0768487 -2.34742
lowerback 13.8626 -0.0112626 -0.685336
upperback 4.5243 -0.0122635 2.38598
thorax -3.00203 -0.0190149 2.88658
lowerneck -17.3498 0.747961 -1.27014
upperneck 12.9112 1.46153 -0.819559
head 6.78165 0.563473 0.0969775
rclavicle -6.55989e-015 -8.84592e-015
rhumerus -27.3407 -25.6908 -72.4283
rradius 23.6216
rwrist 34.8778
rhand -18.1723 -25.1522
rfingers 7.12502
rthumb 8.10403 -54.9768
lclavicle -6.55989e-015 -8.84592e-015
lhumerus -23.6975 9.6109 81.3473
lradius 16.0704
lwrist -0.961643
lhand -25.1374 -4.13595
lfingers 7.12502
lthumb 1.37888 25.8393
rfemur -52.507 -2.74945 23.5514
rtibia 51.6406
rfoot -25.2189 -6.96333
rtoes 0.870859
lfemur -53.2875 8.25437 -21.8968
ltibia 51.6428
lfoot -23.3217 13.485
ltoes -8.53963
197
root 0.148817 16.4043 -15.2126 22.7211 0.00335374 -2.32927
lowerback 14.0574 -0.019983 -0.687082
upperback 4.50335 -0.0220181 2.39194
thorax -3.12857 -0.0224137 2.89744
lowerneck -17.4035 0.742615 -1.2854
upperneck 12.7431 1.45457 -0.806855
head 6.73592 0.562018 0.102531
rclavicle -9.93923e-016 -9.34288e-015
rhumerus -27.5346 -25.6861 -72.3534
rradius 23.609
rwrist 34.8176
rhand -18.0117 -25.2764
rfingers 7.12502
rthumb 8.25908 -55.0949
lclavicle -9.93923e-016 -9.34288e-015
lhumerus -23.8392 10.046 81.1571
lradius 15.8457
lwrist -1.33058
lhand -25.1204 -4.18098
lfingers 7.12502
lthumb 1.39532 25.7942
rfemur -52.8335 -2.76375 23.5673
rtibia 52.0248
rfoot -25.6539 -7.26922
rtoes 0.54347
lfemur -53.6113 8.07331 -21.8658
ltibia 52.0217
lfoot -23.7249 13.929
ltoes -8.67991
198
root 0.146649 16.3862 -15.1962 22.8999 0.0931075 -2.30761
lowerback 14.252 -0.0298779 -0.683408
upperback 4.48093 -0.0324534 2.39903
thorax -3.25646 -0.026094 2.90666
lowerneck -17.4609 0.736349 -1.29876
upperneck 12.5737 1.44648 -0.797067
head 6.69046 0.559852 0.106717
rclavicle -7.65321e-015 -1.2921e-014
rhumerus -27.7149 -25.6617 -72.2904
rradius 23.6235
rwrist 34.6986
rhand -17.8203 -25.4107
rfingers 7.12502
rthumb 8.44376 -55.2219
lclavicle -7.65321e-015 -1.2921e-014
lhumerus -23.9725 10.439 80.9818
lradius 15.6524
lwrist -1.65217
lhand -25.1047 -4.22629
lfingers 7.12502
lthumb 1.41047 25.7488
rfemur -53.1486 -2.78001 23.5784
rtibia 52.4044
rfoot -26.0812 -7.58435
rtoes 0.25039
lfemur -53.9246 7.87447 -21.8297
ltibia 52.3934
lfoot -24.085 14.3884
ltoes -8.8061
